<?xml version="1.0" standalone="no"?><!DOCTYPE svg PUBLIC "-//W3C//DTD SVG 1.1//EN" "http://www.w3.org/Graphics/SVG/1.1/DTD/svg11.dtd"><svg t="1512192291161" class="icon" style="" viewBox="0 0 1024 1024" version="1.1" xmlns="http://www.w3.org/2000/svg" p-id="8658" xmlns:xlink="http://www.w3.org/1999/xlink" width="48" height="48"><defs><style type="text/css"></style></defs><path d="M1002.496 414.208c-5.44-28.672-22.592-47.04-43.456-46.528l-4.352 0c-71.808 0-130.24-58.432-130.24-130.24 0-23.68 11.264-49.6 11.328-49.792 11.072-24.96 2.56-55.616-19.84-71.232l-1.216-0.832-125.248-69.568-1.28-0.576c-7.424-3.2-15.552-4.864-24.192-4.864-17.856 0-35.328 7.104-46.784 19.008-15.296 15.808-63.488 56.768-102.4 56.768-39.296 0-87.808-41.792-103.168-57.856-11.52-12.16-29.12-19.392-47.168-19.392-8.448 0-16.448 1.6-23.744 4.672L339.2 44.224 209.536 115.456l-1.28 0.896C185.792 131.968 177.216 162.56 188.288 187.52c0.128 0.256 11.328 26.24 11.328 49.856 0 71.808-58.432 130.24-130.24 130.24L65.024 367.616c-20.928-0.512-38.08 17.92-43.456 46.528C21.12 416.448 11.072 470.144 11.072 512.384c0 42.304 10.048 95.936 10.496 98.176 5.376 28.288 22.08 46.592 42.688 46.592 0.256 0 0.512 0 0.768 0l4.352 0c71.808 0 130.24 58.432 130.24 130.24 0 23.68-11.264 49.6-11.328 49.792-11.072 24.96-2.56 55.616 19.776 71.232l1.216 0.832 122.88 68.736 1.28 0.576c7.424 3.264 15.488 4.928 24.128 4.928 18.048 0 35.648-7.424 47.04-19.84 14.4-15.68 64.576-60.352 104.704-60.352 40.448 0 89.792 44.416 105.408 61.504 11.456 12.608 29.184 20.16 47.36 20.16l0 0 0 0c8.448 0 16.384-1.6 23.68-4.736l1.344-0.576 127.36-70.4 1.28-0.896c22.4-15.616 30.976-46.272 19.904-71.168-0.128-0.256-11.328-26.24-11.328-49.856 0-71.808 58.432-130.24 130.24-130.24l4.352 0c20.928 0.448 38.08-17.92 43.456-46.528 0.448-2.24 10.496-55.936 10.496-98.176C1012.928 470.144 1002.88 416.448 1002.496 414.208L1002.496 414.208zM509.824 685.248c-95.68 0-173.504-77.824-173.504-173.504 0-95.68 77.824-173.504 173.504-173.504 95.68 0 173.504 77.824 173.504 173.504C683.264 607.424 605.44 685.248 509.824 685.248L509.824 685.248zM509.824 685.248" p-id="8659" fill="#25B9F3"></path><path d="M509.824 397.248 509.824 397.248c-63.104 0-114.496 51.328-114.496 114.496 0 63.104 51.328 114.496 114.496 114.496 63.104 0 114.496-51.328 114.496-114.496C624.256 448.64 572.928 397.248 509.824 397.248L509.824 397.248zM509.824 397.248" p-id="8660" fill="#1296db"></path></svg>
