<?xml version="1.0" standalone="no"?><!DOCTYPE svg PUBLIC "-//W3C//DTD SVG 1.1//EN" "http://www.w3.org/Graphics/SVG/1.1/DTD/svg11.dtd"><svg t="1511676374558" class="icon" style="" viewBox="0 0 1033 1024" version="1.1" xmlns="http://www.w3.org/2000/svg" p-id="2003" xmlns:xlink="http://www.w3.org/1999/xlink" width="201.7578125" height="200"><defs><style type="text/css"></style></defs><path d="M992.405231 19.980416c-21.614105-0.17639-39.574412 17.160251-39.901994 38.818454l-2.658453 191.975585c-120.852518-203.497648-363.193818-299.233454-592.45704-226.642568C88.329621 109.322076-61.268207 397.550039 23.921982 666.608162c85.190189 269.064422 373.418152 418.655951 642.476275 333.465761 101.122009-32.01483 188.409982-93.348238 252.382945-177.461188 13.19777-17.311443 9.827457-42.018677-7.465087-55.121952-17.324042-13.260767-42.043875-9.903052-55.121952 7.465088-54.151806 71.07267-127.996323 122.956601-213.577091 150.051403-227.70091 72.086914-471.541527-54.466788-543.63474-282.167698C26.901718 415.138666 153.468019 171.298049 381.162629 99.204836c204.121313-64.634426 421.818376 27.094802 517.648677 218.119139 2.059986 4.138871 3.357714 8.762815 5.266509 12.952084l-223.385648-45.237799c-21.399917-4.460153-42.031276 9.424279-46.352837 30.704502a39.335025 39.335025 0 0 0 30.723401 46.441032l314.396716 63.752475c0.963847 0.18269 16.372795 0.844153 33.866927-13.285965 11.862244-9.531373 10.8543-32.512502 13.040279-46.749715 12.712697-81.171012 4.932627-305.526806 4.932627-305.526806 0.384279-21.771596-17.147652-40.090983-38.894049-40.393367z" p-id="2004" fill="#ffffff"></path></svg>