<?xml version="1.0" standalone="no"?><!DOCTYPE svg PUBLIC "-//W3C//DTD SVG 1.1//EN" "http://www.w3.org/Graphics/SVG/1.1/DTD/svg11.dtd"><svg class="icon" width="48px" height="48.00px" viewBox="0 0 1024 1024" version="1.1" xmlns="http://www.w3.org/2000/svg"><path fill="#FAA25D" d="M528.29 46.545C242.037 46.545 46.546 258.327 46.546 512S265.31 977.455 512 977.455c53.527 0 88.436-37.237 88.436-81.455 0-65.164-53.527-51.2-53.527-109.382 0-41.89 34.91-69.818 155.927-69.818 118.691 2.327 274.619-65.164 274.619-256S821.527 46.545 528.29 46.545M228.073 512c-41.891 0-76.8-34.91-76.8-76.8s34.909-76.8 76.8-76.8 76.8 34.91 76.8 76.8-34.91 76.8-76.8 76.8m153.6-207.127c-41.891 0-76.8-34.91-76.8-76.8s34.909-76.8 76.8-76.8 76.8 34.909 76.8 76.8-32.582 76.8-76.8 76.8m260.654 0c-41.89 0-76.8-34.91-76.8-76.8s34.91-76.8 76.8-76.8 76.8 34.909 76.8 76.8-34.909 76.8-76.8 76.8M795.927 512c-41.89 0-76.8-34.91-76.8-76.8s34.91-76.8 76.8-76.8 76.8 34.91 76.8 76.8c2.328 41.89-32.582 76.8-76.8 76.8"  /></svg>
